<svg preserveAspectRatio="none" width="100%" height="100%" overflow="visible" style="display: block;" viewBox="0 0 44 44" fill="none" xmlns="http://www.w3.org/2000/svg">
<g id="Frame 2087325784" clip-path="url(#clip0_0_640)">
<g id="Frame">
<path id="Vector" d="M18.8996 34.128C18.7405 34.128 18.5878 34.0647 18.4753 33.9522C18.3628 33.8397 18.2996 33.6871 18.2996 33.528C18.2996 33.3688 18.3628 33.2162 18.4753 33.1037C18.5878 32.9912 18.7405 32.928 18.8996 32.928H25.2488C25.4079 32.928 25.5605 32.9912 25.673 33.1037C25.7856 33.2162 25.8488 33.3688 25.8488 33.528C25.8488 33.6871 25.7856 33.8397 25.673 33.9522C25.5605 34.0647 25.4079 34.128 25.2488 34.128H18.8996ZM21.9968 9.89995C27.3488 9.89995 31.6952 14.28 31.6952 19.6848C31.6952 22.2468 31.0976 23.9052 29.8928 25.3668C28.1024 27.348 26.2952 28.2192 25.9868 31.614H18.0056C17.6984 28.218 15.89 27.348 14.108 25.3668C13.0712 24.0576 12.3056 22.2468 12.3056 19.6848C12.3056 14.28 16.6448 9.89995 21.9968 9.89995ZM21.5972 25.3728L18.4868 22.4244C18.4251 22.3714 18.3749 22.3065 18.339 22.2335C18.3032 22.1606 18.2826 22.0811 18.2784 22C18.2742 21.9188 18.2866 21.8376 18.3147 21.7614C18.3429 21.6851 18.3862 21.6154 18.4421 21.5564C18.498 21.4974 18.5653 21.4504 18.6399 21.4182C18.7145 21.386 18.7949 21.3693 18.8762 21.3691C18.9575 21.3689 19.0379 21.3852 19.1127 21.4171C19.1875 21.4489 19.255 21.4956 19.3112 21.5544L22.136 24.2328L24.9608 21.5544C25.017 21.4956 25.0845 21.4489 25.1593 21.4171C25.234 21.3852 25.3145 21.3689 25.3958 21.3691C25.477 21.3693 25.5574 21.386 25.632 21.4182C25.7067 21.4504 25.774 21.4974 25.8299 21.5564C25.8858 21.6154 25.9291 21.6851 25.9572 21.7614C25.9854 21.8376 25.9977 21.9188 25.9936 22C25.9894 22.0811 25.9687 22.1606 25.9329 22.2335C25.8971 22.3065 25.8468 22.3714 25.7852 22.4244L22.7948 25.26V30.3876H24.7436C25.322 28.0296 26.6168 26.7792 27.8744 25.5624C28.244 25.2036 28.6268 24.8352 28.994 24.4308C30.0332 23.1576 30.4556 21.7644 30.4556 19.632C30.4556 14.94 26.6564 11.1228 21.9884 11.1228C17.3228 11.1228 13.5272 14.9388 13.5272 19.632C13.5272 21.5952 14.0096 23.1708 15.0044 24.444C15.368 24.846 15.7496 25.2144 16.1156 25.5708C17.3696 26.7876 18.6572 28.0356 19.2344 30.3876H21.5972V25.3728Z" fill="var(--fill-0, white)"/>
</g>
<circle id="Ellipse 1810" cx="22" cy="22" r="21.45" stroke="var(--stroke-0, white)" stroke-width="1.1"/>
</g>
<defs>
<clipPath id="clip0_0_640">
<rect width="44" height="44" fill="white"/>
</clipPath>
</defs>
</svg>
