<svg preserveAspectRatio="none" width="100%" height="100%" overflow="visible" style="display: block;" viewBox="0 0 44 44" fill="none" xmlns="http://www.w3.org/2000/svg">
<g id="Group 2087325784">
<circle id="Ellipse 1810" cx="22" cy="22" r="21.45" stroke="var(--stroke-0, #8F8D88)" stroke-width="1.1"/>
<g id="Frame" clip-path="url(#clip0_0_646)">
<path id="Vector" d="M31.8791 13.4772H26.9332V11.8299C26.9332 10.9223 26.1912 10.1803 25.2853 10.1803H18.6914C18.2544 10.1816 17.8357 10.3559 17.5267 10.6649C17.2177 10.974 17.0436 11.3928 17.0424 11.8299V13.4778H12.0976C11.2242 13.4802 10.3871 13.8282 9.7693 14.4457C9.15149 15.0632 8.8031 15.9001 8.8002 16.7736V30.4161C8.80295 31.2896 9.15128 32.1267 9.76911 32.7443C10.3869 33.3619 11.2241 33.7099 12.0976 33.7124H31.8796C32.753 33.7097 33.5898 33.3615 34.2074 32.7439C34.825 32.1263 35.1732 31.2895 35.176 30.4161V16.7736C35.1732 15.9 34.8249 15.063 34.207 14.4454C33.5892 13.8277 32.7521 13.4797 31.8785 13.4772H31.8791ZM18.6914 12.6533C18.6914 12.1995 19.0622 11.8293 19.5154 11.8293H24.4613C24.9134 11.8293 25.2853 12.1995 25.2853 12.6533V13.4772H18.6914V12.6533ZM10.4486 16.7736C10.4502 16.3368 10.6245 15.9184 10.9335 15.6097C11.2424 15.301 11.6609 15.127 12.0976 15.1257H31.8796C32.316 15.1274 32.734 15.3016 33.0425 15.6103C33.351 15.919 33.525 16.3372 33.5264 16.7736V20.895H10.4486V16.7736ZM23.3887 22.5445C23.5136 22.7915 23.6368 23.0797 23.6368 23.3685C23.6353 23.8053 23.4611 24.2239 23.1522 24.5327C22.8432 24.8415 22.4246 25.0156 21.9878 25.0169C21.551 25.0158 21.1323 24.8417 20.8235 24.5328C20.5146 24.2239 20.3405 23.8053 20.3393 23.3685C20.3393 23.0797 20.4219 22.7909 20.5869 22.5434H23.3887V22.5445ZM31.8796 32.064H12.0965C11.6599 32.0627 11.2415 31.8886 10.9327 31.5799C10.624 31.2711 10.45 30.8527 10.4486 30.4161V22.5445H18.8147C18.7305 22.811 18.6889 23.0891 18.6914 23.3685C18.6942 24.2419 19.0424 25.0787 19.66 25.6963C20.2776 26.3139 21.1144 26.6621 21.9878 26.6648C22.8614 26.6624 23.6985 26.3143 24.3163 25.6967C24.9342 25.0791 25.2825 24.2421 25.2853 23.3685C25.2853 23.0797 25.2434 22.7909 25.1615 22.5445H33.5275V30.4155C33.5263 30.8523 33.3523 31.271 33.0434 31.5799C32.7345 31.8887 32.3159 32.0628 31.8791 32.064H31.8796Z" fill="var(--fill-0, #8F8D88)"/>
</g>
</g>
<defs>
<clipPath id="clip0_0_646">
<rect width="26.4" height="26.4" fill="white" transform="translate(8.8 8.8)"/>
</clipPath>
</defs>
</svg>
