<svg preserveAspectRatio="none" width="100%" height="100%" overflow="visible" style="display: block;" viewBox="0 0 44 44" fill="none" xmlns="http://www.w3.org/2000/svg">
<g id="Group 2087325784">
<circle id="Ellipse 1810" cx="22" cy="22" r="21.45" stroke="var(--stroke-0, #8F8D88)" stroke-width="1.1"/>
<g id="Frame">
<path id="Vector" d="M28.8037 12.1064C28.8751 12.0249 28.9619 11.9583 29.059 11.9103C29.1562 11.8623 29.2618 11.8339 29.3699 11.8267C29.4781 11.8196 29.5865 11.8338 29.6892 11.8686C29.7918 11.9034 29.8866 11.958 29.9681 12.0294L32.1681 13.9544C32.2565 14.0319 32.3274 14.1273 32.3759 14.2344C32.4245 14.3414 32.4496 14.4576 32.4496 14.5751C32.4496 14.6927 32.4245 14.8088 32.3759 14.9159C32.3274 15.0229 32.2565 15.1184 32.1681 15.1958L29.9681 17.1208C29.8034 17.2649 29.5882 17.3377 29.3698 17.3232C29.1515 17.3086 28.9478 17.2079 28.8037 17.0432C28.6596 16.8786 28.5868 16.6634 28.6014 16.445C28.6159 16.2266 28.7166 16.023 28.8813 15.8789L29.4302 15.3987H15.8122C15.0668 15.3988 14.3504 15.6871 13.8126 16.2032C13.2749 16.7193 12.9575 17.4233 12.9269 18.168L12.9247 18.2868C12.9247 19.8818 14.2172 21.1748 15.8122 21.1748H28.1212C29.3421 21.1748 30.513 21.6599 31.3763 22.5232C32.2397 23.3865 32.7247 24.5574 32.7247 25.7783C32.7247 26.9993 32.2397 28.1702 31.3763 29.0335C30.513 29.8968 29.3421 30.3818 28.1212 30.3818H16.8792C16.6543 30.9863 16.2242 31.4925 15.6641 31.812C15.1039 32.1316 14.4493 32.2442 13.8145 32.1303C13.1798 32.0163 12.6053 31.6829 12.1913 31.1884C11.7773 30.694 11.5502 30.0697 11.5497 29.4248C11.549 28.7555 11.7924 28.1089 12.2344 27.6062C12.6763 27.1035 13.2865 26.7792 13.9504 26.6942C14.6143 26.6092 15.2865 26.7693 15.8408 27.1444C16.3952 27.5195 16.7937 28.0839 16.9617 28.7318H28.1212C28.9045 28.7318 29.6557 28.4207 30.2096 27.8668C30.7635 27.3129 31.0747 26.5617 31.0747 25.7783C31.0747 24.995 30.7635 24.2438 30.2096 23.6899C29.6557 23.136 28.9045 22.8248 28.1212 22.8248H15.8122C14.6086 22.8248 13.4543 22.3467 12.6033 21.4957C11.7522 20.6446 11.2741 19.4904 11.2741 18.2868C11.2741 17.0832 11.7522 15.929 12.6033 15.0779C13.4543 14.2269 14.6086 13.7487 15.8122 13.7487H29.428L28.8813 13.2702C28.7278 13.1358 28.6295 12.9492 28.6056 12.7466C28.5816 12.5439 28.6336 12.3396 28.7515 12.173L28.8037 12.1064ZM14.2997 28.3248C14.0079 28.3248 13.7281 28.4407 13.5219 28.647C13.3156 28.8533 13.1997 29.1331 13.1997 29.4248C13.1997 29.7166 13.3156 29.9964 13.5219 30.2027C13.7281 30.409 14.0079 30.5248 14.2997 30.5248C14.5914 30.5248 14.8712 30.409 15.0775 30.2027C15.2838 29.9964 15.3997 29.7166 15.3997 29.4248C15.3997 29.1331 15.2838 28.8533 15.0775 28.647C14.8712 28.4407 14.5914 28.3248 14.2997 28.3248Z" fill="var(--fill-0, #8F8D88)"/>
</g>
</g>
</svg>
